<?xml version="1.0" encoding="utf-8"?>
<!-- Generator: Adobe Illustrator 16.0.4, SVG Export Plug-In . SVG Version: 6.00 Build 0)  -->
<svg version="1.2" baseProfile="tiny" id="Layer_1" xmlns="http://www.w3.org/2000/svg" xmlns:xlink="http://www.w3.org/1999/xlink"
	 x="0px" y="0px" width="204px" height="10px" viewBox="0 0 204 10" xml:space="preserve">
<g>
	<g>
		<path fill="#FFFFFF" d="M67.67,9.915c-2.323,0-3.697-1.8-3.697-4.391c0-2.59,1.374-4.39,3.697-4.39c2.323,0,3.697,1.8,3.697,4.39
			C71.367,8.115,69.993,9.915,67.67,9.915z M67.67,2.825c-1.375,0-1.946,1.18-1.946,2.699c0,1.521,0.571,2.7,1.946,2.7
			c1.374,0,1.946-1.18,1.946-2.7C69.616,4.005,69.044,2.825,67.67,2.825z"/>
		<path fill="#FFFFFF" d="M76.68,6.766h-1.873v3.016h-1.702V1.269h3.721c1.605,0,2.931,0.888,2.931,2.7
			C79.757,5.938,78.443,6.766,76.68,6.766z M76.765,2.922h-1.958v2.189h1.982c0.791,0,1.216-0.365,1.216-1.106
			C78.006,3.263,77.52,2.922,76.765,2.922z"/>
		<path fill="#FFFFFF" d="M81.374,9.781V1.269h5.91v1.666h-4.208v1.471h2.445V6.06h-2.445v2.056h4.391v1.666H81.374z"/>
		<path fill="#FFFFFF" d="M94.652,9.781l-3.125-4.646c-0.207-0.316-0.486-0.742-0.596-0.961c0,0.316,0.024,1.387,0.024,1.86v3.746
			h-1.678V1.269h1.629l3.016,4.499c0.207,0.316,0.486,0.742,0.596,0.961c0-0.316-0.024-1.386-0.024-1.86v-3.6h1.678v8.513H94.652z"
			/>
		<path fill="#FFFFFF" d="M101.255,9.915c-1.423,0-2.663-0.596-3.308-1.545l1.228-1.094c0.596,0.692,1.362,0.973,2.177,0.973
			c1.009,0,1.483-0.28,1.483-0.925c0-0.547-0.292-0.79-1.897-1.155c-1.569-0.364-2.664-0.863-2.664-2.542
			c0-1.544,1.362-2.493,3.041-2.493c1.326,0,2.298,0.499,3.101,1.337l-1.229,1.192c-0.547-0.56-1.155-0.875-1.934-0.875
			c-0.912,0-1.216,0.389-1.216,0.766c0,0.535,0.365,0.706,1.714,1.021c1.35,0.316,2.846,0.778,2.846,2.627
			C104.599,8.82,103.578,9.915,101.255,9.915z"/>
		<path fill="#FFFFFF" d="M109.684,2.947v6.834h-1.703V2.947h-2.444V1.269h6.591v1.678H109.684z"/>
		<path fill="#FFFFFF" d="M118.281,9.781l-0.669-1.897h-3.113l-0.669,1.897h-1.824l3.259-8.513h1.654l3.235,8.513H118.281z
			 M116.481,4.722c-0.17-0.499-0.341-1.009-0.426-1.326c-0.085,0.316-0.255,0.827-0.426,1.326l-0.547,1.544h1.946L116.481,4.722z"/>
		<path fill="#FFFFFF" d="M126.296,3.749c-0.304-0.583-0.79-0.924-1.557-0.924c-1.277,0-2.007,1.119-2.007,2.699
			c0,1.532,0.742,2.7,2.019,2.7c0.767,0,1.217-0.328,1.667-1.082l1.435,0.851c-0.584,1.204-1.605,1.922-3.149,1.922
			c-2.226,0-3.722-1.702-3.722-4.391c0-2.59,1.557-4.39,3.782-4.39c1.605,0,2.578,0.778,3.113,1.885L126.296,3.749z"/>
		<path fill="#FFFFFF" d="M134.953,9.781l-2.311-4.11l-1.362,1.605v2.505h-1.702V1.269h1.702v2.42c0,0.316-0.012,1.083-0.024,1.35
			c0.122-0.195,0.438-0.584,0.669-0.864l2.384-2.906h2.056l-2.493,2.943l3.125,5.57H134.953z"/>
		<path fill="#FFFFFF" d="M148.123,9.781V6.656c0-0.463,0.024-1.545,0.024-1.873c-0.121,0.316-0.377,0.924-0.596,1.41l-1.727,3.782
			l-1.728-3.782c-0.219-0.486-0.475-1.094-0.596-1.41c0,0.328,0.024,1.41,0.024,1.873v3.125h-1.666V1.269h1.642l1.775,3.854
			c0.219,0.475,0.475,1.119,0.584,1.423c0.109-0.315,0.353-0.936,0.571-1.423l1.715-3.854h1.679v8.513H148.123z"/>
		<path fill="#FFFFFF" d="M157.681,9.781l-0.669-1.897h-3.113l-0.669,1.897h-1.824l3.26-8.513h1.653l3.235,8.513H157.681z
			 M155.881,4.722c-0.17-0.499-0.341-1.009-0.426-1.326c-0.085,0.316-0.255,0.827-0.426,1.326l-0.547,1.544h1.945L155.881,4.722z"/>
		<path fill="#FFFFFF" d="M166.509,9.781l-3.125-4.646c-0.207-0.316-0.487-0.742-0.597-0.961c0,0.316,0.024,1.387,0.024,1.86v3.746
			h-1.678V1.269h1.629l3.017,4.499c0.207,0.316,0.486,0.742,0.596,0.961c0-0.316-0.024-1.386-0.024-1.86v-3.6h1.679v8.513H166.509z"
			/>
		<path fill="#FFFFFF" d="M175.884,9.781l-0.669-1.897h-3.113l-0.669,1.897h-1.824l3.26-8.513h1.653l3.235,8.513H175.884z
			 M174.084,4.722c-0.17-0.499-0.341-1.009-0.426-1.326c-0.085,0.316-0.255,0.827-0.426,1.326l-0.547,1.544h1.945L174.084,4.722z"/>
		<path fill="#FFFFFF" d="M182.306,9.915c-2.226,0-3.722-1.702-3.722-4.391c0-2.59,1.557-4.39,3.782-4.39
			c1.739,0,2.663,0.814,3.223,2.128l-1.617,0.669c-0.316-0.632-0.706-1.106-1.63-1.106c-1.277,0-2.007,1.119-2.007,2.699
			c0,1.569,0.742,2.725,2.019,2.725c1.168,0,1.569-0.547,1.667-1.289h-1.351V5.367h3.053v1.118
			C185.723,8.675,184.275,9.915,182.306,9.915z"/>
		<path fill="#FFFFFF" d="M187.521,9.781V1.269h5.91v1.666h-4.208v1.471h2.444V6.06h-2.444v2.056h4.391v1.666H187.521z"/>
		<path fill="#FFFFFF" d="M200.363,9.781l-1.521-3.064h-1.715v3.064h-1.702V1.269h3.964c1.605,0,2.932,0.888,2.932,2.7
			c0,1.277-0.548,2.08-1.63,2.505l1.63,3.308H200.363z M199.354,2.922h-2.226v2.189h2.226c0.791,0,1.216-0.365,1.216-1.106
			C200.569,3.238,200.107,2.922,199.354,2.922z"/>
	</g>
	<g>
		<path fill="#FFFFFF" d="M4.653,9.781L3.263,6.91H2.312v2.871H0V1.266h3.808c0.494,0,0.947,0.051,1.356,0.152
			C5.574,1.52,5.925,1.68,6.217,1.897c0.292,0.22,0.518,0.505,0.676,0.857C7.05,3.108,7.129,3.534,7.129,4.039
			c0,0.641-0.138,1.163-0.414,1.568C6.438,6.014,6.064,6.32,5.592,6.531l1.707,3.25H4.653z M4.543,3.442
			c-0.159-0.17-0.428-0.256-0.801-0.256h-1.43v1.862h1.394c0.392,0,0.668-0.08,0.831-0.243C4.7,4.645,4.782,4.408,4.782,4.101
			C4.782,3.833,4.702,3.613,4.543,3.442z"/>
		<path fill="#FFFFFF" d="M8.71,9.781V1.266h6.521v1.983h-4.184v1.144h2.518V6.34h-2.518v1.459h4.269v1.982H8.71z"/>
		<path fill="#FFFFFF" d="M23.891,7.5c-0.193,0.549-0.484,0.988-0.874,1.326c-0.391,0.338-0.87,0.578-1.443,0.73
			c-0.57,0.148-1.234,0.225-1.988,0.225h-2.761V1.266h2.979c0.665,0,1.271,0.068,1.812,0.207c0.542,0.138,1.004,0.371,1.381,0.699
			s0.669,0.76,0.876,1.295c0.206,0.536,0.31,1.205,0.31,2.008C24.184,6.275,24.086,6.951,23.891,7.5z M21.66,4.503
			c-0.07-0.285-0.182-0.516-0.334-0.694c-0.155-0.179-0.358-0.31-0.608-0.396c-0.252-0.085-0.56-0.128-0.924-0.128h-0.586v4.478
			h0.512c0.365,0,0.678-0.039,0.937-0.115c0.259-0.076,0.472-0.203,0.638-0.377c0.167-0.174,0.286-0.404,0.359-0.693
			c0.073-0.287,0.109-0.643,0.109-1.064C21.763,5.122,21.729,4.785,21.66,4.503z"/>
		<path fill="#FFFFFF" d="M34.681,9.781V6.424H32.03v3.357h-2.409V1.266h2.409v3.103h2.651V1.266h2.409v8.516H34.681z"/>
		<path fill="#FFFFFF" d="M44.316,9.781l-0.462-1.498H41.3l-0.463,1.498h-2.53l3.09-8.516h2.385l3.089,8.516H44.316z M43.125,5.852
			c-0.073-0.277-0.139-0.515-0.195-0.719c-0.057-0.201-0.107-0.385-0.152-0.547c-0.045-0.162-0.083-0.311-0.115-0.443
			s-0.061-0.274-0.086-0.42c-0.023,0.146-0.052,0.288-0.085,0.425c-0.032,0.138-0.07,0.289-0.114,0.451
			c-0.045,0.161-0.096,0.344-0.153,0.547c-0.056,0.203-0.121,0.437-0.194,0.704L41.873,6.41h1.41L43.125,5.852z"/>
		<path fill="#FFFFFF" d="M51.324,3.322v6.459h-2.36V3.322h-2.385V1.266h7.129v2.057H51.324z"/>
		<path fill="#FFFFFF" d="M59.002,2.229c-0.081,0.194-0.192,0.363-0.337,0.506c-0.144,0.145-0.311,0.255-0.506,0.337
			c-0.195,0.081-0.405,0.122-0.632,0.122c-0.227,0-0.438-0.041-0.633-0.122s-0.364-0.191-0.507-0.337
			c-0.143-0.144-0.255-0.312-0.335-0.506c-0.082-0.194-0.123-0.405-0.123-0.632c0-0.228,0.041-0.439,0.123-0.633
			c0.079-0.194,0.191-0.363,0.335-0.506c0.144-0.144,0.312-0.256,0.507-0.336C57.089,0.041,57.3,0,57.527,0
			c0.227,0,0.438,0.041,0.632,0.123c0.194,0.079,0.363,0.191,0.506,0.336c0.144,0.143,0.255,0.312,0.337,0.506
			c0.081,0.192,0.122,0.405,0.122,0.633S59.083,2.035,59.002,2.229z M58.7,1.073c-0.065-0.158-0.153-0.293-0.265-0.404
			c-0.112-0.112-0.247-0.199-0.403-0.263c-0.156-0.062-0.323-0.093-0.504-0.093c-0.184,0-0.352,0.031-0.507,0.093
			c-0.156,0.062-0.289,0.148-0.4,0.263c-0.112,0.111-0.2,0.246-0.266,0.404c-0.064,0.157-0.097,0.331-0.097,0.524
			c0,0.191,0.032,0.366,0.097,0.522c0.065,0.159,0.153,0.294,0.266,0.405c0.111,0.111,0.245,0.199,0.4,0.262
			c0.155,0.062,0.323,0.094,0.507,0.094c0.181,0,0.348-0.031,0.504-0.094c0.157-0.062,0.291-0.148,0.403-0.262
			c0.111-0.111,0.199-0.246,0.265-0.405c0.064-0.156,0.097-0.331,0.097-0.522C58.796,1.404,58.764,1.23,58.7,1.073z M57.81,2.426
			l-0.282-0.584h-0.194v0.584H56.86V0.689h0.778c0.203,0,0.366,0.044,0.49,0.129c0.125,0.086,0.187,0.232,0.187,0.438
			c0,0.133-0.029,0.238-0.087,0.32c-0.057,0.081-0.132,0.145-0.227,0.188l0.344,0.659L57.81,2.426L57.81,2.426z M57.788,1.135
			c-0.033-0.034-0.088-0.051-0.164-0.051h-0.291V1.46h0.283c0.079,0,0.136-0.017,0.169-0.049c0.035-0.032,0.051-0.079,0.051-0.143
			C57.836,1.215,57.821,1.171,57.788,1.135z"/>
	</g>
</g>
</svg>
